<mxfile host="app.diagrams.net" modified="2023-08-07T08:16:23.537Z" agent="Mozilla/5.0 (Windows NT 10.0; Win64; x64) AppleWebKit/537.36 (KHTML, like Gecko) Chrome/115.0.0.0 Safari/537.36" etag="7mIiS1ViYT3d3hPJI4Lv" version="21.6.6" type="device">
  <diagram name="페이지-1" id="yj0XRrUDXnzD5Zsg3cYb">
    <mxGraphModel dx="792" dy="1100" grid="1" gridSize="10" guides="1" tooltips="1" connect="1" arrows="1" fold="1" page="1" pageScale="1" pageWidth="827" pageHeight="1169" math="0" shadow="0">
      <root>
        <mxCell id="0" />
        <mxCell id="1" parent="0" />
      </root>
    </mxGraphModel>
  </diagram>
</mxfile>
